HIERARCHY
ROOT hip
{
  OFFSET 0 0 0
  CHANNELS 6 Xposition Yposition Zposition Zrotation Yrotation Xrotation
  JOINT abdomen
  {
    OFFSET 0 20.6881 -0.73152
    CHANNELS 3 Zrotation Xrotation Yrotation
    JOINT chest
    {
      OFFSET 0 11.7043 -0.48768
      CHANNELS 3 Zrotation Xrotation Yrotation
      JOINT neck
      {
        OFFSET 0 22.1894 -2.19456
        CHANNELS 3 Zrotation Xrotation Yrotation
        JOINT head
        {
          OFFSET -0.24384 7.07133 1.2192
          CHANNELS 3 Zrotation Xrotation Yrotation
          JOINT leftEye
          {
            OFFSET 4.14528 8.04674 8.04672
            CHANNELS 3 Zrotation Xrotation Yrotation
            End Site
            {
              OFFSET 1 0 0
            }
          }
          JOINT rightEye
          {
            OFFSET -3.6576 8.04674 8.04672
            CHANNELS 3 Zrotation Xrotation Yrotation
            End Site
            {
              OFFSET 1 0 0
            }
          }
        }
      }
      JOINT rCollar
      {
        OFFSET -2.68224 19.2634 -4.8768
        CHANNELS 3 Zrotation Xrotation Yrotation
        JOINT rShldr
        {
          OFFSET -8.77824 -1.95073 1.46304
          CHANNELS 3 Zrotation Xrotation Yrotation
          JOINT rForeArm
          {
            OFFSET -28.1742 -1.7115 0.48768
            CHANNELS 3 Zrotation Xrotation Yrotation
            JOINT rHand
            {
              OFFSET -22.5879 0.773209 7.07136
              CHANNELS 3 Zrotation Xrotation Yrotation
              JOINT rThumb1
              {
                OFFSET -1.2192 -0.487915 3.41376
                CHANNELS 3 Zrotation Xrotation Yrotation
                JOINT rThumb2
                {
                  OFFSET -3.37035 -0.52449 3.41376
                  CHANNELS 3 Zrotation Xrotation Yrotation
                  End Site
                  {
                    OFFSET -1.78271 -1.18214 1.43049
                  }
                }
              }
              JOINT rIndex1
              {
                OFFSET -7.75947 0.938293 5.60832
                CHANNELS 3 Zrotation Xrotation Yrotation
                JOINT rIndex2
                {
                  OFFSET -2.54057 -0.884171 1.56538
                  CHANNELS 3 Zrotation Xrotation Yrotation
                  End Site
                  {
                    OFFSET -1.62519 -0.234802 1.16502
                  }
                }
              }
              JOINT rMid1
              {
                OFFSET -8.24714 1.18213 3.41376
                CHANNELS 3 Zrotation Xrotation Yrotation
                JOINT rMid2
                {
                  OFFSET -3.10165 -0.590103 1.0647
                  CHANNELS 3 Zrotation Xrotation Yrotation
                  End Site
                  {
                    OFFSET -2.48547 -0.328903 0.83742
                  }
                }
              }
              JOINT rRing1
              {
                OFFSET -8.82822 0.546677 1.51678
                CHANNELS 3 Zrotation Xrotation Yrotation
                JOINT rRing2
                {
                  OFFSET -2.60934 -0.819778 -0.0198488
                  CHANNELS 3 Zrotation Xrotation Yrotation
                  End Site
                  {
                    OFFSET -2.33842 -0.294052 0.168128
                  }
                }
              }
              JOINT rPinky1
              {
                OFFSET -8.27202 -0.0477905 -0.4584
                CHANNELS 3 Zrotation Xrotation Yrotation
                JOINT rPinky2
                {
                  OFFSET -1.82734 -0.647385 -0.700984
                  CHANNELS 3 Zrotation Xrotation Yrotation
                  End Site
                  {
                    OFFSET -1.69225 -0.51767 -0.607171
                  }
                }
              }
            }
          }
        }
      }
      JOINT lCollar
      {
        OFFSET 2.68224 19.2634 -4.8768
        CHANNELS 3 Zrotation Xrotation Yrotation
        JOINT lShldr
        {
          OFFSET 8.77824 -1.95073 1.46304
          CHANNELS 3 Zrotation Xrotation Yrotation
          JOINT lForeArm
          {
            OFFSET 28.1742 -1.7115 0.48768
            CHANNELS 3 Zrotation Xrotation Yrotation
            JOINT lHand
            {
              OFFSET 22.5879 0.773209 7.07136
              CHANNELS 3 Zrotation Xrotation Yrotation
              JOINT lThumb1
              {
                OFFSET 1.2192 -0.487915 3.41376
                CHANNELS 3 Zrotation Xrotation Yrotation
                JOINT lThumb2
                {
                  OFFSET 3.37035 -0.52449 3.41376
                  CHANNELS 3 Zrotation Xrotation Yrotation
                  End Site
                  {
                    OFFSET 1.78271 -1.18214 1.43049
                  }
                }
              }
              JOINT lIndex1
              {
                OFFSET 7.75947 0.938293 5.60832
                CHANNELS 3 Zrotation Xrotation Yrotation
                JOINT lIndex2
                {
                  OFFSET 2.54057 -0.884171 1.56538
                  CHANNELS 3 Zrotation Xrotation Yrotation
                  End Site
                  {
                    OFFSET 1.62519 -0.234802 1.16502
                  }
                }
              }
              JOINT lMid1
              {
                OFFSET 8.24714 1.18213 3.41376
                CHANNELS 3 Zrotation Xrotation Yrotation
                JOINT lMid2
                {
                  OFFSET 3.10165 -0.590103 1.0647
                  CHANNELS 3 Zrotation Xrotation Yrotation
                  End Site
                  {
                    OFFSET 2.48547 -0.328903 0.83742
                  }
                }
              }
              JOINT lRing1
              {
                OFFSET 8.82822 0.546677 1.51678
                CHANNELS 3 Zrotation Xrotation Yrotation
                JOINT lRing2
                {
                  OFFSET 2.60934 -0.819778 -0.0198488
                  CHANNELS 3 Zrotation Xrotation Yrotation
                  End Site
                  {
                    OFFSET 2.33842 -0.294052 0.168128
                  }
                }
              }
              JOINT lPinky1
              {
                OFFSET 8.27202 -0.0477905 -0.4584
                CHANNELS 3 Zrotation Xrotation Yrotation
                JOINT lPinky2
                {
                  OFFSET 1.82734 -0.647385 -0.700984
                  CHANNELS 3 Zrotation Xrotation Yrotation
                  End Site
                  {
                    OFFSET 1.69225 -0.51767 -0.607171
                  }
                }
              }
            }
          }
        }
      }
    }
  }
  JOINT rButtock
  {
    OFFSET -8.77824 4.35084 1.2192
    CHANNELS 3 Zrotation Xrotation Yrotation
    JOINT rThigh
    {
      OFFSET 0 -1.70687 -2.19456
      CHANNELS 3 Zrotation Xrotation Yrotation
      JOINT rShin
      {
        OFFSET 0 -36.8199 0.73152
        CHANNELS 3 Zrotation Xrotation Yrotation
        JOINT rFoot
        {
          OFFSET 0.73152 -45.1104 -5.12064
          CHANNELS 3 Zrotation Xrotation Yrotation
          End Site
          {
            OFFSET -1.1221 -3.69964 12.103
          }
        }
      }
    }
  }
  JOINT lButtock
  {
    OFFSET 8.77824 4.35084 1.2192
    CHANNELS 3 Zrotation Xrotation Yrotation
    JOINT lThigh
    {
      OFFSET 0 -1.70687 -2.19456
      CHANNELS 3 Zrotation Xrotation Yrotation
      JOINT lShin
      {
        OFFSET 0 -36.8199 0.73152
        CHANNELS 3 Zrotation Xrotation Yrotation
        JOINT lFoot
        {
          OFFSET -0.73152 -45.1104 -5.12064
          CHANNELS 3 Zrotation Xrotation Yrotation
          End Site
          {
            OFFSET 1.1221 -3.69964 12.103
          }
        }
      }
    }
  }
}
MOTION
Frames:	8
Frame Time:	0.00833333
0.428399 87.284 0.757992 -59.6217 33.7764 -48.0867 20.7992 35.0893 -16.4149 11.7831 -14.157 -0.885052 -4.62134 14.3032 -8.4291 26.9575 -18.9551 -11.9958 -0.0 0.0 0.0 -0.0 0.0 0.0 -0.0 0.0 0.0 59.1172 14.5433 -15.476401 -26.3352 -24.3267 58.202698 -0.075966 7.83907 1.1087 0.0 -0.0 0.0 0.0 -0.0 0.0 0.0 -0.0 0.0 7.73091 5.47488 0.417314 0.0 -0.0 0.0 2.90554 0.965183 0.102902 0.0 -0.0 0.0 10.2786 0.731801 0.025912 0.0 -0.0 0.0 2.22167 -0.733487 -0.20892 -0.0 0.0 0.0 -28.2646 7.96768 -59.096794 24.6168 -20.2967 -51.6241 0.385032 -17.3719 2.51994 0.0 0.0 -0.0 0.0 0.0 -0.0 0.0 0.0 -0.0 -7.73091 5.47488 -0.417314 0.0 0.0 -0.0 -2.90554 0.965183 -0.102902 0.0 0.0 -0.0 -10.2786 0.731801 -0.025912 0.0 0.0 -0.0 -2.22167 -0.733487 0.20892 -0.0 0.0 -0.0 -85.3547 -48.0206 -49.6825 -0.653058 59.0687 2.84494 -1.17214 -7.1779 -18.4046 0.0 0.0 0.0 45.5818 -13.2236 16.0308 -0.130574 22.1357 -2.77437 -1.16845 -0.927604 32.4352
0.851101 88.0438 1.280987 -60.7227 33.3884 -48.4597 21.7658 34.8285 -16.4593 11.9048 -14.4858 -0.718728 -4.51882 14.2716 -8.51799 27.4149 -18.6291 -12.1726 -0.0 0.0 0.0 -0.0 0.0 0.0 -0.0 0.0 -0.0 59.351006 14.7133 -15.9251 -26.0668 -23.6098 57.0384 -0.085182 8.37486 1.18529 0.0 -0.0 0.0 0.0 -0.0 0.0 0.0 -0.0 0.0 7.73091 5.47488 0.417314 0.0 -0.0 0.0 2.90554 0.965183 0.102902 0.0 -0.0 0.0 10.2786 0.731801 0.025912 0.0 -0.0 0.0 2.22167 -0.733487 -0.20892 -0.0 0.0 -0.0 -27.7837 7.75833 -60.8275 24.3322 -19.7285 -50.7141 0.349866 -16.3762 2.37023 0.0 0.0 -0.0 0.0 0.0 -0.0 0.0 0.0 -0.0 -7.73091 5.47488 -0.417314 0.0 0.0 -0.0 -2.90554 0.965183 -0.102902 0.0 0.0 -0.0 -10.2786 0.731801 -0.025912 0.0 0.0 -0.0 -2.22167 -0.733487 0.20892 -0.0 0.0 -0.0 -80.4156 -46.4654 -41.7736 -0.00504 45.9078 1.78595 -1.2417 -5.23847 -22.0418 0.0 0.0 0.0 45.6761 -10.8521 15.2178 -0.200389 16.6514 -2.58491 -1.38026 -0.241128 34.6296
1.260699 88.708 1.529992 -61.6123 33.1386 -48.653 22.3238 34.4667 -16.124 12.0954 -14.756699 -0.491548 -4.40163 14.2366 -8.61901 27.8756 -18.3409 -12.3686 -0.0 0.0 0.0 -0.0 0.0 0.0 -0.0 0.0 -0.0 59.544796 14.8585 -16.3202 -25.7819 -22.8897 55.8575 -0.102994 9.22607 1.30765 0.0 -0.0 0.0 0.0 -0.0 0.0 0.0 -0.0 0.0 7.73091 5.47488 0.417314 0.0 -0.0 0.0 2.90554 0.965183 0.102902 0.0 -0.0 0.0 10.2786 0.731801 0.025912 0.0 -0.0 0.0 2.22167 -0.733487 -0.20892 -0.0 0.0 -0.0 -27.4403 7.63341 -62.471996 24.0896 -19.2643 -49.9172 0.330091 -15.8332 2.28853 -0.0 0.0 -0.0 -0.0 0.0 -0.0 -0.0 0.0 -0.0 -7.73091 5.47488 -0.417314 -0.0 0.0 -0.0 -2.90554 0.965183 -0.102902 -0.0 0.0 -0.0 -10.2786 0.731801 -0.025912 -0.0 0.0 -0.0 -2.22167 -0.733487 0.20892 -0.0 0.0 -0.0 -75.77 -43.6238 -32.7142 0.233389 31.0936 0.933323 -0.851022 -2.58932 -26.3988 0.0 0.0 0.0 45.4398 -7.94177 13.8541 -0.244694 10.3761 -2.34371 -1.79267 0.643232 36.7146
1.594798 89.1147 1.716995 -62.3338 33.0475 -48.6758 22.5454 33.974 -15.5739 12.3016 -14.9339 -0.255829 -4.34086 14.1932 -8.71735 28.338 -18.1135 -12.5456 -0.0 0.0 0.0 -0.0 0.0 0.0 -0.0 -0.0 -0.0 59.7208 14.893901 -16.6231 -25.4859 -22.1811 54.7051 -0.124371 10.0683 1.42963 0.0 -0.0 -0.0 0.0 -0.0 -0.0 0.0 -0.0 -0.0 7.73091 5.47488 0.417314 0.0 -0.0 -0.0 2.90554 0.965183 0.102902 0.0 -0.0 -0.0 10.2786 0.731801 0.025912 0.0 -0.0 -0.0 2.22167 -0.733487 -0.20892 -0.0 -0.0 -0.0 -27.0941 7.50381 -64.0155 23.887 -18.8887 -49.2518 0.325869 -15.8153 2.28456 -0.0 0.0 -0.0 -0.0 0.0 -0.0 -0.0 0.0 -0.0 -7.73091 5.47488 -0.417314 -0.0 0.0 -0.0 -2.90554 0.965183 -0.102902 -0.0 0.0 -0.0 -10.2786 0.731801 -0.025912 -0.0 0.0 -0.0 -2.22167 -0.733487 0.20892 -0.0 0.0 -0.0 -73.1261 -40.1016 -25.5482 0.099124 17.5708 0.338752 -0.032052 -0.066322 -30.4425 0.0 0.0 0.0 45.3033 -5.18798 12.5162 -0.24189 4.51389 -2.13055 -2.2756 1.40783 38.4588
1.787999 89.3179 2.317989 -63.069195 32.9001 -48.5158 22.5008 33.3222 -14.9731 12.4684 -14.9818 -0.064269 -4.40762 14.1362 -8.79815 28.7992 -17.9702 -12.6659 -0.0 0.0 0.0 -0.0 0.0 0.0 -0.0 -0.0 -0.0 59.899796 14.7351 -16.7952 -25.1883 -21.5058 53.6242 -0.139213 10.5772 1.50383 0.0 -0.0 -0.0 0.0 -0.0 -0.0 0.0 -0.0 -0.0 7.73091 5.47488 0.417314 0.0 -0.0 -0.0 2.90554 0.965183 0.102902 0.0 -0.0 -0.0 10.2786 0.731801 0.025912 0.0 -0.0 -0.0 2.22167 -0.733487 -0.20892 -0.0 -0.0 -0.0 -26.6133 7.29754 -65.4435 23.7208 -18.5846 -48.7382 0.341417 -16.3944 2.36976 -0.0 0.0 -0.0 -0.0 0.0 -0.0 -0.0 0.0 -0.0 -7.73091 5.47488 -0.417314 -0.0 0.0 -0.0 -2.90554 0.965183 -0.102902 -0.0 0.0 -0.0 -10.2786 0.731801 -0.025912 -0.0 0.0 -0.0 -2.22167 -0.733487 0.20892 -0.0 0.0 -0.0 -72.6203 -37.5055 -22.217 -0.164058 8.28933 0.004997 0.809693 1.67461 -33.092 0.0 0.0 0.0 45.5312 -3.33151 11.7268 -0.216406 0.270547 -1.99971 -2.65036 1.77445 39.6181
1.878099 89.4455 3.083992 -63.767105 32.8054 -48.1364 22.1491 32.3067 -14.2655 12.6116 -14.813301 0.077342 -4.66616 14.035901 -8.84637 29.2747 -17.9504 -12.6847 -0.0 0.0 0.0 -0.0 0.0 0.0 -0.0 -0.0 -0.0 60.0489 14.3647 -16.8015 -24.8994 -20.882 52.6108 -0.145256 10.7336 1.52687 0.0 -0.0 -0.0 0.0 -0.0 -0.0 0.0 -0.0 -0.0 7.73091 5.47488 0.417314 0.0 -0.0 -0.0 2.90554 0.965183 0.102902 0.0 -0.0 -0.0 10.2786 0.731801 0.025912 0.0 -0.0 -0.0 2.22167 -0.733487 -0.20892 -0.0 -0.0 -0.0 -26.009 6.99857 -66.7112 23.6148 -18.3917 -48.4323 0.398122 -17.9272 2.6015 -0.0 0.0 -0.0 -0.0 0.0 -0.0 -0.0 0.0 -0.0 -7.73091 5.47488 -0.417314 -0.0 0.0 -0.0 -2.90554 0.965183 -0.102902 -0.0 0.0 -0.0 -10.2786 0.731801 -0.025912 -0.0 0.0 -0.0 -2.22167 -0.733487 0.20892 -0.0 0.0 -0.0 -73.6347 -36.5877 -23.0145 -0.355727 3.99488 -0.121076 1.3682 2.6528 -33.9803 0.0 0.0 0.0 46.1857 -2.76077 11.8028 -0.203845 -1.75074 -1.95866 -2.80383 1.57228 39.8657
1.798201 89.5094 3.816998 -64.4371 32.7856 -47.5646 21.5043 31.000097 -13.4185 12.7481 -14.473301 0.193774 -5.06345 13.9045 -8.87366 29.759401 -18.0306 -12.6339 -0.0 0.0 0.0 -0.0 0.0 0.0 -0.0 0.0 -0.0 60.171295 13.8259 -16.6723 -24.6196 -20.3036 51.6389 -0.145881 10.688 1.5205 0.0 -0.0 0.0 0.0 -0.0 0.0 0.0 -0.0 0.0 7.73091 5.47488 0.417314 0.0 -0.0 0.0 2.90554 0.965183 0.102902 0.0 -0.0 0.0 10.2786 0.731801 0.025912 0.0 -0.0 0.0 2.22167 -0.733487 -0.20892 -0.0 0.0 -0.0 -25.3414 6.66478 -67.8432 23.572 -18.3157 -48.3013 0.511263 -20.2614 2.96664 -0.0 0.0 -0.0 -0.0 0.0 -0.0 -0.0 0.0 -0.0 -7.73091 5.47488 -0.417314 -0.0 0.0 -0.0 -2.90554 0.965183 -0.102902 -0.0 0.0 -0.0 -10.2786 0.731801 -0.025912 -0.0 0.0 -0.0 -2.22167 -0.733487 0.20892 -0.0 0.0 -0.0 -75.6073 -36.7787 -26.4639 -0.442559 3.13099 -0.150758 1.70911 3.26319 -33.6867 0.0 0.0 0.0 47.061 -3.03409 12.3782 -0.207745 -2.286 -1.96131 -2.82812 1.00134 39.4181
1.6413 89.4663 4.485988 -64.9252 33.0095 -47.0045 20.6848 29.7996 -12.6074 12.8257 -14.1247 0.278418 -5.49467 13.7997 -8.90516 30.2205 -18.1393 -12.5907 -0.0 0.0 0.0 -0.0 0.0 0.0 -0.0 0.0 -0.0 60.342804 13.1253 -16.4679 -24.3471 -19.7614 50.7189 -0.137297 10.3712 1.47438 0.0 -0.0 0.0 0.0 -0.0 0.0 0.0 -0.0 0.0 7.73091 5.47488 0.417314 0.0 -0.0 0.0 2.90554 0.965183 0.102902 0.0 -0.0 0.0 10.2786 0.731801 0.025912 0.0 -0.0 0.0 2.22167 -0.733487 -0.20892 -0.0 0.0 -0.0 -24.5556 6.3367 -68.9289 23.5539 -18.2852 -48.2352 0.66374 -22.7061 3.36641 -0.0 0.0 -0.0 -0.0 0.0 -0.0 -0.0 0.0 -0.0 -7.73091 5.47488 -0.417314 -0.0 0.0 -0.0 -2.90554 0.965183 -0.102902 -0.0 0.0 -0.0 -10.2786 0.731801 -0.025912 -0.0 0.0 -0.0 -2.22167 -0.733487 0.20892 -0.0 0.0 -0.0 -78.3201 -37.7598 -31.524899 -0.410733 5.19318 -0.088967 1.84133 3.52371 -32.5033 0.0 0.0 0.0 47.9518 -3.66163 12.9407 -0.218421 -2.1376 -1.97925 -2.83478 0.356976 38.838
